HIERARCHY
ROOT Hips
{
	OFFSET 0.000000 0.000000 0.000000
	CHANNELS 6 Xposition Yposition Zposition Zrotation Yrotation Xrotation 
	JOINT LHipJoint
	{
		OFFSET 0.000000 0.000000 0.000000
		CHANNELS 3 Zrotation Yrotation Xrotation
		JOINT LeftUpLeg
		{
			OFFSET 1.363060 -1.794630 0.839290
			CHANNELS 3 Zrotation Yrotation Xrotation
			JOINT LeftLeg
			{
				OFFSET 2.448110 -6.726130 0.000000
				CHANNELS 3 Zrotation Yrotation Xrotation
				JOINT LeftFoot
				{
					OFFSET 2.562200 -7.039590 0.000000
					CHANNELS 3 Zrotation Yrotation Xrotation
					JOINT LeftToeBase
					{
						OFFSET 0.157640 -0.433110 2.322550
						CHANNELS 3 Zrotation Yrotation Xrotation
						End Site
						{
							OFFSET 0.000000 0.000000 0.000000
						}
					}
				}
			}
		}
	}
	JOINT RHipJoint
	{
		OFFSET 0.000000 0.000000 0.000000
		CHANNELS 3 Zrotation Yrotation Xrotation
		JOINT RightUpLeg
		{
			OFFSET -1.305520 -1.794630 0.839290
			CHANNELS 3 Zrotation Yrotation Xrotation
			JOINT RightLeg
			{
				OFFSET -2.542530 -6.985550 0.000000
				CHANNELS 3 Zrotation Yrotation Xrotation
				JOINT RightFoot
				{
					OFFSET -2.568260 -7.056230 0.000000
					CHANNELS 3 Zrotation Yrotation Xrotation
					JOINT RightToeBase
					{
						OFFSET -0.164730 -0.452590 2.363150
						CHANNELS 3 Zrotation Yrotation Xrotation
						End Site
						{
							OFFSET 0.000000 0.000000 0.000000
						}
					}
				}
			}
		}
	}
	JOINT LowerBack
	{
		OFFSET 0.000000 0.000000 0.000000
		CHANNELS 3 Zrotation Yrotation Xrotation
		JOINT Spine
		{
			OFFSET 0.028270 2.035590 -0.193380
			CHANNELS 3 Zrotation Yrotation Xrotation
			JOINT Spine1
			{
				OFFSET 0.056720 2.048850 -0.042750
				CHANNELS 3 Zrotation Yrotation Xrotation
				JOINT Neck
				{
					OFFSET 0.000000 0.000000 0.000000
					CHANNELS 3 Zrotation Yrotation Xrotation
					JOINT Neck1
					{
						OFFSET -0.054170 1.746240 0.172020
						CHANNELS 3 Zrotation Yrotation Xrotation
						JOINT Head
						{
							OFFSET 0.104070 1.761360 -0.123970
							CHANNELS 3 Zrotation Yrotation Xrotation
							End Site
							{
								OFFSET 0.000000 0.000000 0.000000
							}
						}
					}
				}
				JOINT LeftShoulder
				{
					OFFSET 0.000000 0.000000 0.000000
					CHANNELS 3 Zrotation Yrotation Xrotation
					JOINT LeftArm
					{
						OFFSET 3.362410 1.200890 -0.311210
						CHANNELS 3 Zrotation Yrotation Xrotation
						JOINT LeftForeArm
						{
							OFFSET 4.983000 -0.000000 -0.000000
							CHANNELS 3 Zrotation Yrotation Xrotation
							JOINT LeftHand
							{
								OFFSET 3.483560 -0.000000 -0.000000
								CHANNELS 3 Zrotation Yrotation Xrotation
								JOINT LeftFingerBase
								{
									OFFSET 0.000000 0.000000 0.000000
									CHANNELS 3 Zrotation Yrotation Xrotation
									JOINT LeftHandIndex1
									{
										OFFSET 0.715260 -0.000000 -0.000000
										CHANNELS 3 Zrotation Yrotation Xrotation
										End Site
										{
											OFFSET 0.000000 0.000000 0.000000
										}
									}
								}
								JOINT LThumb
								{
									OFFSET 0.000000 0.000000 0.000000
									CHANNELS 3 Zrotation Yrotation Xrotation
									End Site
									{
										OFFSET 0.000000 0.000000 0.000000
									}
								}
							}
						}
					}
				}
				JOINT RightShoulder
				{
					OFFSET 0.000000 0.000000 0.000000
					CHANNELS 3 Zrotation Yrotation Xrotation
					JOINT RightArm
					{
						OFFSET -3.136600 1.374050 -0.404650
						CHANNELS 3 Zrotation Yrotation Xrotation
						JOINT RightForeArm
						{
							OFFSET -5.241900 -0.000000 -0.000000
							CHANNELS 3 Zrotation Yrotation Xrotation
							JOINT RightHand
							{
								OFFSET -3.444170 -0.000000 -0.000000
								CHANNELS 3 Zrotation Yrotation Xrotation
								JOINT RightFingerBase
								{
									OFFSET 0.000000 0.000000 0.000000
									CHANNELS 3 Zrotation Yrotation Xrotation
									JOINT RightHandIndex1
									{
										OFFSET -0.622530 -0.000000 -0.000000
										CHANNELS 3 Zrotation Yrotation Xrotation
										End Site
										{
											OFFSET 0.000000 0.000000 0.000000
										}
									}
								}
								JOINT RThumb
								{
									OFFSET 0.000000 0.000000 0.000000
									CHANNELS 3 Zrotation Yrotation Xrotation
									End Site
									{
										OFFSET 0.000000 0.000000 0.000000
									}
								}
							}
						}
					}
				}
			}
		}
	}
}
MOTION
Frames: 8
Frame Time: 0.008333
-0.524564 18.378755 5.949010 -5.186261 -2.371160 1.143654 2.202807 4.221108 4.248837 -10.456365 -7.888799 -6.699975 1.233032 7.075595 24.137741 -0.593517 6.369016 -14.561522 8.335000 -16.360200 -53.760700 -2.363225 -4.490663 3.584865 2.951509 1.943863 -1.755608 0.037386 0.726465 1.415230 0.305168 -0.942294 5.954919 0.000000 0.000000 0.000000 -0.710821 -1.948413 -4.175154 6.218926 -4.874573 33.650826 -1.650210 -1.104572 -16.724681 -1.701214 -4.380819 -24.698885 1.258638 -5.411012 41.578392 -0.252500 -2.307500 14.216500 3.696891 -5.931238 -0.948523 -87.130959 -30.183482 76.460210 105.276069 -56.064644 -70.310113 -0.209463 1.020666 -20.841391 14.049883 -34.472359 -8.183800 -7.125000 0.000000 0.000000 -10.439800 -5.855600 11.636500 -7.378524 7.739437 0.423755 70.126222 -2.477947 35.378642 -141.262910 39.720790 -103.822121 0.655069 0.860498 -9.800484 -19.487329 -28.697407 10.255700 7.125000 0.000000 0.000000 12.486600 -60.461600 -4.751200 
-0.527800 18.379147 5.948029 -5.127153 -2.464538 1.156218 2.168270 4.228717 4.261119 -10.481900 -7.906908 -6.681516 1.224246 7.074296 24.110747 -0.598054 6.408758 -14.624088 8.307500 -16.340800 -53.662700 -2.395699 -4.481925 3.570836 2.944655 1.945658 -1.745024 0.037644 0.731570 1.416833 0.306701 -0.937363 5.956963 0.000000 0.000000 0.000000 -0.513424 -1.796976 -4.081619 5.975636 -4.614138 33.504749 -1.689644 -1.005874 -16.917565 -1.511026 -4.330973 -24.579670 1.138189 -5.353319 41.754543 -0.299300 -2.284000 14.201500 3.677620 -5.889452 -0.930618 -85.964614 -29.766829 75.641858 107.156098 -55.759792 -72.182184 -0.276584 1.007661 -21.083113 14.007453 -34.608305 -8.222800 -7.125000 0.000000 0.000000 -10.444600 -5.992900 11.664500 -7.360378 7.701669 0.421199 69.856642 -1.859812 36.337241 -141.472043 39.645060 -103.951738 0.667664 0.880915 -9.798204 -19.648246 -28.677026 10.349500 7.125000 0.000000 0.000000 12.287600 -60.499500 -4.685200 
-0.531626 18.379441 5.946460 -5.074165 -2.532853 1.194915 2.124747 4.236396 4.272545 -10.478583 -7.921261 -6.722957 1.216922 7.080445 24.093225 -0.600903 6.435753 -14.665569 8.293900 -16.331200 -53.614300 -2.437879 -4.468770 3.549218 2.936232 1.947927 -1.731792 0.037936 0.737926 1.418900 0.308592 -0.931195 5.959488 0.000000 0.000000 0.000000 -0.232497 -1.669183 -3.911015 5.619969 -4.351293 33.286980 -1.746095 -0.927408 -17.186371 -1.400638 -4.297724 -24.400827 1.176236 -5.348634 41.949719 -0.292800 -2.265100 14.168500 3.665651 -5.845335 -0.903338 -84.708401 -29.248372 74.745968 109.042553 -55.440633 -74.054206 -0.344388 0.994192 -21.268807 14.067032 -34.668749 -8.309900 -7.125000 0.000000 0.000000 -10.385300 -6.074500 11.609300 -7.303483 7.652572 0.417006 69.614834 -1.167647 37.393117 -141.601068 39.635701 -104.003351 0.661125 0.893317 -9.765031 -19.537247 -28.871122 10.352300 7.125000 0.000000 0.000000 12.549800 -60.678200 -4.840500 
-0.535647 18.379932 5.943517 -5.198761 -2.487323 1.252793 2.195812 4.239818 4.254130 -10.393330 -7.884331 -6.814475 1.217811 7.073500 24.084255 -0.611519 6.447231 -14.589920 8.326500 -16.354200 -53.730300 -2.370077 -4.461535 3.559577 2.946928 1.944661 -1.740937 0.037055 0.731959 1.416473 0.306494 -0.937595 5.958203 0.000000 0.000000 0.000000 -0.521706 -1.554111 -4.020755 6.437072 -4.360973 33.250993 -1.885637 -0.852441 -17.083807 -1.776084 -4.347509 -24.216990 1.383309 -5.393128 41.774042 -0.180600 -2.284500 14.114500 3.587441 -5.786251 -0.912460 -83.717631 -29.071700 73.841872 110.774352 -55.115889 -75.752082 -0.404284 0.981649 -21.401280 14.194594 -34.638786 -8.416500 -7.125000 0.000000 0.000000 -10.282400 -6.077700 11.491200 -7.421563 7.570229 0.395789 69.060184 -0.155035 38.259871 -141.644138 39.701622 -103.981144 0.640137 0.896323 -9.790558 -19.239565 -29.190009 10.280900 7.125000 0.000000 0.000000 13.118800 -60.925800 -5.141600 
-0.540159 18.381207 5.939005 -5.263537 -2.450655 1.300248 2.199229 4.250537 4.259863 -10.294497 -7.886922 -6.900009 1.212276 7.069106 24.052750 -0.624347 6.472994 -14.522042 8.340400 -16.364000 -53.779800 -2.368258 -4.451415 3.555833 2.943912 1.946224 -1.736270 0.036921 0.734913 1.417579 0.307224 -0.934711 5.959428 0.000000 0.000000 0.000000 -0.422324 -1.432747 -4.075565 6.550517 -4.214151 33.230739 -2.003453 -0.787214 -17.089262 -1.851303 -4.391153 -24.134941 1.518269 -5.486595 41.746664 -0.143700 -2.306800 14.093500 3.565810 -5.734123 -0.902754 -82.521875 -28.850015 72.933320 112.409555 -54.793054 -77.356422 -0.462450 0.969457 -21.612638 14.397497 -34.682228 -8.582100 -7.125000 0.000000 0.000000 -10.149600 -6.166700 11.352100 -7.440761 7.489968 0.370720 68.712313 0.797080 39.117602 -141.652645 39.783227 -103.940631 0.631967 0.886211 -9.860798 -19.000969 -29.252582 10.162500 7.125000 0.000000 0.000000 13.430400 -60.919000 -5.264000 
-0.544671 18.383757 5.930276 -5.184033 -2.489731 1.339542 2.164904 4.253622 4.270287 -10.326367 -7.946489 -6.950107 1.200963 7.064974 24.016413 -0.646613 6.569435 -14.548892 8.331000 -16.357400 -53.746200 -2.400238 -4.446594 3.546993 2.936540 1.948218 -1.727061 0.037336 0.739818 1.419208 0.308577 -0.929842 5.961107 0.000000 0.000000 0.000000 -0.307712 -1.285817 -4.045119 6.310412 -3.971432 33.182374 -1.991496 -0.688102 -17.186650 -1.599118 -4.369616 -24.097710 1.309826 -5.462541 41.799092 -0.234500 -2.307700 14.068800 3.550165 -5.674046 -0.884268 -81.295325 -28.583071 71.947227 113.914087 -54.486282 -78.832568 -0.517622 0.955957 -21.768257 14.657425 -34.708190 -8.778200 -7.125000 0.000000 0.000000 -9.984500 -6.246800 11.174400 -7.422235 7.427249 0.350835 68.466520 1.669048 40.104829 -141.691906 39.836679 -103.929728 0.642612 0.890946 -9.987248 -19.130338 -29.246905 10.237900 7.125000 0.000000 0.000000 13.267100 -60.946100 -5.207200 
-0.547614 18.386896 5.919486 -4.890990 -2.618660 1.335279 2.081829 4.248697 4.287265 -10.568855 -8.023218 -6.934622 1.186637 7.066764 23.995463 -0.690925 6.780900 -14.649911 8.340100 -16.363800 -53.778600 -2.477313 -4.448714 3.531422 2.923069 1.951197 -1.712273 0.038473 0.747528 1.421726 0.310781 -0.922040 5.963341 0.000000 0.000000 0.000000 -0.183002 -1.113649 -3.904323 5.612525 -3.612694 33.124654 -1.830211 -0.550405 -17.382622 -1.346962 -4.333017 -24.147815 1.152209 -5.432206 42.023480 -0.306400 -2.297800 14.101500 3.571950 -5.608422 -0.856165 -80.035620 -28.211716 70.863933 115.326539 -54.189863 -80.212429 -0.567437 0.944452 -21.845752 14.806332 -34.773316 -8.912700 -7.125000 0.000000 0.000000 -9.886400 -6.345800 11.076500 -7.332184 7.366979 0.331447 68.292240 2.543853 41.231762 -141.677852 39.928738 -103.875325 0.668357 0.905451 -10.134090 -19.567827 -29.251674 10.495300 7.125000 0.000000 0.000000 12.749600 -61.065800 -5.036500 
-0.549281 18.388171 5.917819 -4.753089 -2.660410 1.326403 2.021328 4.256328 4.306371 -10.656778 -8.020880 -6.940823 1.181121 7.074630 23.990864 -0.712183 6.867830 -14.651718 8.366300 -16.382200 -53.871800 -2.536057 -4.441987 3.514791 2.910169 1.955361 -1.698838 0.039233 0.755769 1.424845 0.313126 -0.913555 5.965713 0.000000 0.000000 0.000000 0.067344 -0.984557 -3.876368 5.085948 -3.331121 33.108173 -1.805786 -0.469250 -17.479196 -1.323332 -4.358522 -24.269419 1.189272 -5.492132 42.295159 -0.312900 -2.309400 14.196400 3.600419 -5.550027 -0.829179 -78.765919 -27.769523 69.790197 116.786680 -53.857936 -81.620215 -0.616838 0.933768 -22.140850 14.940473 -34.839013 -9.036200 -7.125000 0.000000 0.000000 -9.799300 -6.444400 10.991100 -7.239364 7.270244 0.301041 68.031306 3.699696 42.249481 -141.433165 40.197374 -103.624152 0.688989 0.913585 -10.348066 -20.062051 -29.443698 10.839600 7.125000 0.000000 0.000000 12.291200 -61.377900 -4.943300 
